<svg width="27" height="19" viewBox="0 0 27 19" fill="none" xmlns="http://www.w3.org/2000/svg">
<path d="M21.1965 18.1043C21.1965 18.6017 16.4432 18.9996 10.6121 18.9996C4.75333 18.9996 0 18.6017 0 18.1043C0 17.6069 4.75333 17.209 10.5844 17.209C16.4432 17.209 21.1965 17.6069 21.1965 18.1043Z" fill="white"/>
<path d="M21.0584 18.1039C21.0584 18.6013 16.3603 18.9744 10.5845 18.9744C4.80865 18.9744 0.110596 18.5765 0.110596 18.1039C0.110596 17.6066 4.80865 17.2335 10.5845 17.2335C16.3603 17.2087 21.0584 17.6066 21.0584 18.1039Z" fill="#FEFEFE"/>
<path d="M20.9202 18.1048C20.9202 18.5773 16.2774 18.9752 10.5845 18.9752C4.86393 18.9752 0.248779 18.5773 0.248779 18.1048C0.248779 17.6323 4.89156 17.2344 10.5845 17.2344C16.3051 17.2344 20.9202 17.6074 20.9202 18.1048Z" fill="#FDFDFD"/>
<path d="M20.8095 18.1045C20.8095 18.577 16.2496 18.9749 10.5843 18.9749C4.94664 18.9749 0.359131 18.6019 0.359131 18.1045C0.359131 17.632 4.91901 17.2589 10.5843 17.2589C16.222 17.234 20.8095 17.632 20.8095 18.1045Z" fill="#FCFDFD"/>
<path d="M20.6713 18.0799C20.6713 18.5524 16.1667 18.9255 10.5843 18.9255C5.00192 18.9255 0.497314 18.5524 0.497314 18.0799C0.497314 17.6074 5.00192 17.2344 10.5843 17.2344C16.1667 17.2344 20.6713 17.6323 20.6713 18.0799Z" fill="#FBFCFC"/>
<path d="M20.561 18.0799C20.561 18.5524 16.1116 18.9255 10.6122 18.9255C5.11266 18.9255 0.66333 18.5524 0.66333 18.0799C0.66333 17.6074 5.11266 17.2344 10.6122 17.2344C16.084 17.2592 20.561 17.6323 20.561 18.0799Z" fill="#FAFBFB"/>
<path d="M20.4227 18.0795C20.4227 18.5271 16.0286 18.9002 10.5844 18.9002C5.14016 18.9002 0.746094 18.5271 0.746094 18.0795C0.746094 17.6318 5.14016 17.2588 10.5844 17.2588C16.0286 17.2588 20.4227 17.6318 20.4227 18.0795Z" fill="#F9FAFA"/>
<path d="M20.3121 18.0795C20.3121 18.5271 15.9733 18.9002 10.612 18.9002C5.25066 18.9002 0.911865 18.5271 0.911865 18.0795C0.911865 17.6318 5.25066 17.2588 10.612 17.2588C15.9456 17.2588 20.3121 17.6318 20.3121 18.0795Z" fill="#F8F9F9"/>
<path d="M20.174 18.08C20.174 18.5276 15.8905 18.8758 10.5844 18.8758C5.27839 18.8758 0.994873 18.5276 0.994873 18.08C0.994873 17.6323 5.27839 17.2842 10.5844 17.2842C15.8905 17.2842 20.174 17.6323 20.174 18.08Z" fill="#F7F9F9"/>
<path d="M20.0358 18.08C20.0358 18.5276 15.8076 18.8758 10.5844 18.8758C5.36131 18.8758 1.13306 18.5276 1.13306 18.08C1.13306 17.6323 5.36131 17.2842 10.5844 17.2842C15.8076 17.2842 20.0358 17.6323 20.0358 18.08Z" fill="#F6F8F8"/>
<path d="M19.9253 18.08C19.9253 18.5028 15.7524 18.8758 10.5845 18.8758C5.44427 18.8758 1.24365 18.5276 1.24365 18.08C1.24365 17.6572 5.41663 17.2842 10.5845 17.2842C15.7524 17.2842 19.9253 17.6323 19.9253 18.08Z" fill="#F5F7F7"/>
<path d="M19.7872 18.0551C19.7872 18.4779 15.6695 18.8261 10.5845 18.8261C5.49954 18.8509 1.38184 18.5028 1.38184 18.0551C1.38184 17.6323 5.49954 17.2842 10.5845 17.2842C15.6695 17.2842 19.7872 17.6323 19.7872 18.0551Z" fill="#F4F6F6"/>
<path d="M19.6766 18.0551C19.6766 18.4779 15.6141 18.8261 10.6121 18.8261C5.61004 18.8261 1.54761 18.4779 1.54761 18.0551C1.54761 17.6323 5.61004 17.2842 10.6121 17.2842C15.6141 17.309 19.6766 17.6323 19.6766 18.0551Z" fill="#F3F6F6"/>
<path d="M10.5846 18.8007C15.5297 18.8007 19.5385 18.4667 19.5385 18.0547C19.5385 17.6426 15.5297 17.3086 10.5846 17.3086C5.63943 17.3086 1.63062 17.6426 1.63062 18.0547C1.63062 18.4667 5.63943 18.8007 10.5846 18.8007Z" fill="#F2F5F5"/>
<path d="M19.4279 18.0547C19.4279 18.4526 15.476 18.8007 10.6122 18.8007C5.74828 18.8007 1.79639 18.4774 1.79639 18.0547C1.79639 17.6568 5.74828 17.3086 10.6122 17.3086C15.476 17.3086 19.4279 17.6568 19.4279 18.0547Z" fill="#F1F4F4"/>
<path d="M19.2898 18.0542C19.2898 18.4521 15.3932 18.7754 10.5846 18.7754C5.77597 18.7754 1.90698 18.4521 1.90698 18.0542C1.90698 17.6563 5.80361 17.333 10.6122 17.333C15.4208 17.333 19.2898 17.6563 19.2898 18.0542Z" fill="#F0F3F3"/>
<path d="M19.1514 18.0542C19.1514 18.4521 15.3101 18.7754 10.5844 18.7754C5.85869 18.7754 2.01733 18.4521 2.01733 18.0542C2.01733 17.6563 5.85869 17.333 10.5844 17.333C15.3377 17.333 19.1514 17.6563 19.1514 18.0542Z" fill="#EFF2F2"/>
<path d="M10.5844 18.7754C15.2548 18.7754 19.0409 18.4525 19.0409 18.0542C19.0409 17.6559 15.2548 17.333 10.5844 17.333C5.91403 17.333 2.12793 17.6559 2.12793 18.0542C2.12793 18.4525 5.91403 18.7754 10.5844 18.7754Z" fill="#EEF2F2"/>
<path d="M18.9028 18.0541C18.9028 18.452 15.1719 18.7505 10.5844 18.7505C5.99692 18.7505 2.26611 18.4272 2.26611 18.0541C2.26611 17.6562 5.99692 17.3578 10.5844 17.3578C15.1996 17.3329 18.9028 17.6562 18.9028 18.0541Z" fill="#EDF1F1"/>
<path d="M18.7922 18.0293C18.7922 18.4024 15.1166 18.7257 10.612 18.7257C6.07979 18.7257 2.43188 18.4272 2.43188 18.0293C2.43188 17.6563 6.10742 17.333 10.612 17.333C15.1166 17.3579 18.7922 17.6563 18.7922 18.0293Z" fill="#EDF0F0"/>
<path d="M18.6539 18.0299C18.6539 18.4029 15.0336 18.7013 10.5842 18.7013C6.13491 18.7013 2.51465 18.4029 2.51465 18.0299C2.51465 17.6568 6.13491 17.3584 10.5842 17.3584C15.0612 17.3584 18.6539 17.6568 18.6539 18.0299Z" fill="#ECEFEF"/>
<path d="M18.5435 18.0299C18.5435 18.4029 14.9785 18.7013 10.6121 18.7013C6.21802 18.7013 2.68066 18.4029 2.68066 18.0299C2.68066 17.6568 6.24566 17.3584 10.6121 17.3584C14.9785 17.3584 18.5435 17.6568 18.5435 18.0299Z" fill="#EBEEEE"/>
<path d="M18.4054 18.0294C18.4054 18.4024 14.8957 18.676 10.5846 18.676C6.2734 18.676 2.76367 18.3776 2.76367 18.0294C2.76367 17.6564 6.2734 17.3828 10.5846 17.3828C14.8957 17.3828 18.4054 17.6564 18.4054 18.0294Z" fill="#EAEEEE"/>
<path d="M18.2673 18.0294C18.2673 18.3776 14.8128 18.676 10.5846 18.676C6.32867 18.676 2.90186 18.3776 2.90186 18.0294C2.90186 17.6812 6.35631 17.3828 10.5846 17.3828C14.8404 17.3828 18.2673 17.6812 18.2673 18.0294Z" fill="#E9EDED"/>
<path d="M18.1565 18.0294C18.1565 18.3776 14.7573 18.676 10.5843 18.676C6.41134 18.6511 3.03979 18.3776 3.03979 18.0294C3.03979 17.6812 6.43898 17.3828 10.612 17.3828C14.7573 17.3828 18.1565 17.6812 18.1565 18.0294Z" fill="#E8ECEC"/>
<path d="M18.0186 18.0294C18.0186 18.3776 14.7023 18.6512 10.5846 18.6512C6.46691 18.6512 3.15063 18.3776 3.15063 18.0294C3.15063 17.6813 6.46691 17.4077 10.5846 17.4077C14.7023 17.3828 18.0186 17.6813 18.0186 18.0294Z" fill="#E7EBEB"/>
<path d="M17.9078 18.0045C17.9078 18.3527 14.6468 18.6263 10.612 18.6263C6.57717 18.6263 3.31616 18.3527 3.31616 18.0045C3.31616 17.6564 6.57717 17.3828 10.612 17.3828C14.6191 17.4077 17.9078 17.6812 17.9078 18.0045Z" fill="#E6EAEA"/>
<path d="M17.7697 18.0051C17.7697 18.3284 14.564 18.6019 10.5844 18.6019C6.6049 18.6019 3.39917 18.3284 3.39917 18.0051C3.39917 17.6818 6.6049 17.4082 10.5844 17.4082C14.564 17.4082 17.7697 17.6818 17.7697 18.0051Z" fill="#E5EAEA"/>
<path d="M17.6594 18.0051C17.6594 18.3284 14.5089 18.6019 10.6123 18.6019C6.71565 18.6019 3.56519 18.3284 3.56519 18.0051C3.56519 17.6818 6.71565 17.4082 10.6123 17.4082C14.4813 17.4082 17.6594 17.6818 17.6594 18.0051Z" fill="#E4E9E9"/>
<path d="M17.521 18.0046C17.521 18.3279 14.4258 18.5766 10.5845 18.5766C6.77077 18.5766 3.64795 18.3279 3.64795 18.0046C3.64795 17.6813 6.74314 17.4326 10.5845 17.4326C14.4258 17.4326 17.521 17.6813 17.521 18.0046Z" fill="#E3E8E8"/>
<path d="M17.4104 18.0046C17.4104 18.3279 14.3705 18.5766 10.6121 18.5766C6.85364 18.5766 3.81372 18.3279 3.81372 18.0046C3.81372 17.6813 6.85364 17.4326 10.6121 17.4326C14.3429 17.4326 17.4104 17.6813 17.4104 18.0046Z" fill="#E2E7E7"/>
<path d="M17.2721 18.0046C17.2721 18.303 14.2875 18.5766 10.5843 18.5766C6.90877 18.5766 3.89648 18.3279 3.89648 18.0046C3.89648 17.7062 6.88113 17.4326 10.5843 17.4326C14.2875 17.4326 17.2721 17.6813 17.2721 18.0046Z" fill="#E1E7E7"/>
<path d="M17.1339 18.0051C17.1339 18.3036 14.2046 18.5522 10.5843 18.5522C6.96404 18.5522 4.03467 18.3036 4.03467 18.0051C4.03467 17.7067 6.96404 17.458 10.5843 17.458C14.2046 17.458 17.1339 17.6818 17.1339 18.0051Z" fill="#E0E6E6"/>
<path d="M17.0234 18.0051C17.0234 18.3036 14.1493 18.5522 10.5843 18.5522C7.04695 18.5522 4.17285 18.3036 4.17285 18.0051C4.17285 17.7067 7.04695 17.458 10.5843 17.458C14.1493 17.458 17.0234 17.7067 17.0234 18.0051Z" fill="#DFE5E5"/>
<path d="M16.8853 17.9803C16.8853 18.2787 14.0665 18.5025 10.5844 18.5025C7.10228 18.5025 4.28345 18.2538 4.28345 17.9803C4.28345 17.6818 7.10228 17.458 10.5844 17.458C14.0665 17.458 16.8853 17.7067 16.8853 17.9803Z" fill="#DEE4E4"/>
<path d="M16.7748 17.9803C16.7748 18.2787 14.0112 18.5025 10.612 18.5025C7.18519 18.5025 4.42163 18.2787 4.42163 17.9803C4.42163 17.7067 7.18519 17.458 10.5844 17.458C14.0112 17.458 16.7748 17.7067 16.7748 17.9803Z" fill="#DDE3E3"/>
<path d="M16.6366 17.9798C16.6366 18.2534 13.9283 18.4772 10.5844 18.4772C7.24052 18.4772 4.53223 18.2534 4.53223 17.9798C4.53223 17.7062 7.24052 17.4824 10.5844 17.4824C13.9283 17.4824 16.6366 17.7062 16.6366 17.9798Z" fill="#DCE3E3"/>
<path d="M16.526 17.9798C16.526 18.2534 13.873 18.4772 10.612 18.4772C7.35102 18.4772 4.698 18.2534 4.698 17.9798C4.698 17.7062 7.35102 17.4824 10.612 17.4824C13.873 17.4824 16.526 17.7062 16.526 17.9798Z" fill="#DBE2E2"/>
<path d="M16.388 17.9798C16.388 18.2534 13.7902 18.4772 10.5845 18.4772C7.37875 18.4772 4.78101 18.2534 4.78101 17.9798C4.78101 17.7062 7.37875 17.4824 10.5845 17.4824C13.7902 17.4824 16.388 17.7062 16.388 17.9798Z" fill="#DAE1E1"/>
<path d="M27.0001 5.81924C27.0001 7.68443 24.7893 9.17657 22.081 9.17657C19.3727 9.17657 17.1619 7.68443 17.1619 5.81924C17.1619 3.95406 19.3727 2.46191 22.081 2.46191C24.7893 2.46191 27.0001 3.95406 27.0001 5.81924Z" fill="#F9962D"/>
<path d="M18.1843 6.88867C18.1843 6.88867 16.3603 8.85333 15.5312 9.79836C15.5312 9.79836 20.5886 8.43056 21.9427 8.08239L18.1843 6.88867Z" fill="#F9962D"/>
<path d="M20.6438 5.81874C20.6438 6.06743 20.4227 6.26638 20.1464 6.26638C19.87 6.26638 19.6489 6.06743 19.6489 5.81874C19.6489 5.57005 19.87 5.37109 20.1464 5.37109C20.4227 5.37109 20.6438 5.57005 20.6438 5.81874Z" fill="#FAFAFA"/>
<path d="M22.8823 5.81906C22.8823 6.14236 22.606 6.39105 22.2467 6.39105C21.8874 6.39105 21.6111 6.14236 21.6111 5.81906C21.6111 5.49576 21.8874 5.24707 22.2467 5.24707C22.5783 5.24707 22.8823 5.49576 22.8823 5.81906Z" fill="#FAFAFA"/>
<path d="M25.0103 5.81847C25.0103 6.16664 24.6787 6.46507 24.2918 6.46507C23.9049 6.46507 23.5732 6.16664 23.5732 5.81847C23.5732 5.4703 23.9049 5.17188 24.2918 5.17188C24.7063 5.17188 25.0103 5.44544 25.0103 5.81847Z" fill="#FAFAFA"/>
<path d="M10.4186 17.4342C10.4186 17.4342 7.68272 18.2798 6.96419 17.1606C6.30094 16.0913 7.18528 13.8033 7.18528 13.8033C7.18528 13.8033 10.8885 13.3059 11.4412 13.2562C11.9939 13.2313 15.0614 13.0821 15.3378 13.8282C15.5865 14.5743 12.9611 17.4093 10.4186 17.4342Z" fill="#F2F2F2"/>
<path d="M10.4186 9.54945L8.20776 8.55469V13.056C8.20776 13.056 9.06447 13.9762 10.4186 13.9762C12.0215 13.9762 12.6295 13.1306 12.6295 13.1306V9.22615L10.4186 9.54945Z" fill="#FFDBA8"/>
<path d="M12.6295 10.2963C12.6295 10.2963 11.5793 11.1667 8.20776 12.8081V9.84863L12.6295 10.2963Z" fill="#F0BD6D"/>
<path d="M10.4186 12.8828V14.549L9.86589 14.7231L9.06445 13.4797C9.06445 13.5045 9.81061 12.9326 10.4186 12.8828Z" fill="#598997"/>
<path d="M8.20775 11.7637L7.79321 11.9626L8.81573 15.0961L10.4462 12.9077C10.4186 12.8828 9.50662 12.7584 8.20775 11.7637Z" fill="#DFE1DE"/>
<path d="M6.96439 6.16796C6.96439 6.16796 7.48947 9.82372 7.60001 9.99781C7.71056 10.1719 9.75559 11.1667 10.4465 11.1418V2.31325C10.4188 2.31325 6.13532 0.721628 6.96439 6.16796Z" fill="#FFDBA8"/>
<path d="M13.9006 6.16754C13.9006 6.16754 13.3756 9.8233 13.265 9.99739C13.1545 10.1715 11.1094 11.1662 10.4462 11.1414V2.31283C10.4186 2.31283 14.4534 1.54189 13.9006 6.16754Z" fill="#FFDBA8"/>
<path d="M13.2927 8.33082C13.2927 8.33082 13.9007 8.52977 14.26 7.4604C14.6745 6.24181 14.3982 5.69469 14.0113 5.71956C13.8731 5.71956 13.7625 5.74443 13.6796 5.79417C13.4309 5.91851 13.348 6.19207 13.348 6.19207L13.2927 8.33082Z" fill="#FFDBA8"/>
<path d="M7.57218 8.33082C7.57218 8.33082 6.96419 8.52977 6.60493 7.4604C6.19039 6.24181 6.46675 5.69469 6.85365 5.71956C6.99183 5.71956 7.10237 5.74443 7.18528 5.79417C7.434 5.91851 7.5169 6.19207 7.5169 6.19207L7.57218 8.33082Z" fill="#FFDBA8"/>
<path d="M6.57721 2.88527C6.27322 3.63134 6.90884 5.81982 6.90884 5.81982L7.29574 6.36694L7.21283 5.14836C7.21283 5.14836 8.06954 3.48213 7.82081 2.8604L7.2681 2.16406C7.2681 2.16406 6.68775 2.66144 6.57721 2.88527Z" fill="#A83D0D"/>
<path d="M14.26 2.88572C14.564 3.60693 13.956 5.79541 13.956 5.79541L13.5691 6.34253L13.6521 5.12394C13.6521 5.12394 12.7954 3.45771 13.0441 2.83598L13.5968 2.13965C13.5691 2.16452 14.1771 2.6619 14.26 2.88572Z" fill="#A83D0D"/>
<path d="M10.4188 0.62207C9.39625 0.62207 7.90393 1.04485 7.26831 2.16396L7.82102 2.86029C7.82102 2.86029 9.25808 3.55663 10.474 3.63123C11.2202 3.68097 12.4362 3.70584 13.3481 3.05924L13.5969 2.13909C13.5692 2.16396 12.8231 0.646939 10.4188 0.62207Z" fill="#A83D0D"/>
<path d="M10.4185 12.8828V14.549L10.9712 14.7231L11.7726 13.4797C11.8002 13.5045 11.0264 12.9326 10.4185 12.8828Z" fill="#4DBBC9"/>
<path d="M12.6293 11.7139L13.0991 11.9874L12.0766 15.0712L10.4185 12.8827C10.4185 12.8827 11.3304 12.7335 12.6293 11.7139Z" fill="#FAF8FA"/>
<path d="M6.41148 15.3197L6.88129 14.7229L7.10237 14.4244L6.24567 13.181L5.94168 12.6836L2.6254 14.0514C2.37668 14.2752 1.96215 16.3394 1.68579 18.1051H8.76051L6.41148 15.3197Z" fill="#3B556C"/>
<path d="M14.4535 15.3197L12.1045 18.1051H19.1792C18.9029 16.3145 18.4607 14.2752 18.2396 14.0514L14.9233 12.6836L13.7626 14.3996L14.4535 15.3197Z" fill="#60768E"/>
<path d="M10.4187 18.1056V14.5742L9.866 14.7483C9.866 14.7483 9.50674 16.2156 9.42383 16.9617L9.78309 18.1056H10.4187Z" fill="#598997"/>
<path d="M11.0819 18.1056L11.4412 16.9617C11.3583 16.2156 10.999 14.7483 10.999 14.7483L10.4463 14.5742V18.1056H11.0819Z" fill="#4DBBC9"/>
<path d="M7.10235 14.4001L6.88126 14.6985L6.41146 15.3202L8.76048 18.1056H9.783L9.42374 16.9616L8.18014 13.1069L7.79324 11.9629L5.94165 12.6841L6.24564 13.1566L7.10235 14.4001Z" fill="#597D90"/>
<path d="M14.4536 15.3207L13.7627 14.4006L14.9234 12.6846L13.0994 11.9883L12.7402 13.1074L11.5518 16.6885L11.082 18.1061H12.1046L14.4536 15.3207Z" fill="#3D5B73"/>
<path d="M4.80859 5.69503L5.00204 7.18717C5.05731 7.65969 5.69293 7.98299 6.38382 7.90838H6.46673L6.07983 4.84948C6.07983 4.75 6.07983 4.67539 6.07983 4.57592C6.07983 2.26309 8.09723 0.373037 10.5568 0.373037C13.0164 0.373037 15.0338 2.26309 15.0338 4.57592C15.0338 4.67539 15.0338 4.75 15.0338 4.84948L14.6745 7.63482L13.3756 9.22644C13.1545 9.15183 12.8782 9.20157 12.74 9.37566L11.607 10.5942C11.4135 10.8181 11.4411 11.1414 11.6899 11.3154C11.9386 11.4895 12.2978 11.4647 12.4913 11.2408L13.6244 10.0223C13.7625 9.87304 13.7902 9.64922 13.7073 9.47513L14.9785 7.90838C15.5865 7.88351 16.0563 7.58508 16.1116 7.16231L16.305 5.67016C16.3603 5.27225 16.001 4.89922 15.4759 4.72513C15.4759 4.67539 15.4759 4.60079 15.4759 4.55105C15.393 2.06414 13.2098 0 10.5015 0C7.82087 0 5.61002 2.06414 5.61002 4.57592C5.61002 4.62566 5.61002 4.67539 5.61002 4.75C5.11258 4.89922 4.75332 5.29712 4.80859 5.69503Z" fill="#F9962D"/>
</svg>
